<?xml version="1.0" encoding="UTF-8"?>
<svg id="Capa_2" data-name="Capa 2" xmlns="http://www.w3.org/2000/svg" viewBox="0 0 321.13 135.3">
  <defs>
    <style>
      .cls-1 {
        fill: #fff;
      }
    </style>
  </defs>
  <g id="Capa_1-2" data-name="Capa 1">
    <path class="cls-1" d="M321.13,105.7l-65.43.69c-2.53,7.33-9.49,12.59-17.69,12.59-6.83,0-12.81-3.66-16.07-9.13-.25.01-.5.02-.75.02-5.64,0-10.7-2.5-14.13-6.45-4.03,7.71-12.1,12.97-21.41,12.97-7.77,0-14.7-3.68-19.12-9.39-5.04,6.24-12.75,10.22-21.39,10.22-6.3,0-12.11-2.13-16.74-5.68-1.82,13.41-13.33,23.76-27.25,23.76-11.95,0-22.13-7.64-25.91-18.28-1.96.69-4.07,1.06-6.27,1.06-10.44,0-18.9-8.46-18.9-18.89,0-2.57.51-5.02,1.45-7.24l-51.52-.55,47.23-9.09c-3.02-4.3-4.79-9.53-4.79-15.17,0-14.65,11.88-26.53,26.53-26.53,8.03,0,15.22,3.56,20.07,9.19,4.77-8.16,13.62-13.65,23.75-13.65,1.49,0,2.95.12,4.37.35-.98-2.83-1.52-5.85-1.52-9,0-15.19,12.32-27.5,27.51-27.5s27.5,12.31,27.5,27.5c0,.21,0,.43-.02.64,12.37,2.67,21.64,13.69,21.64,26.86,0,.26,0,.52-.02.77,1.66-.5,3.43-.77,5.26-.77,4.18,0,8.05,1.38,11.16,3.71,3.34-8.29,11.46-14.14,20.94-14.14,11.95,0,21.73,9.29,22.52,21.05,1.74-.57,3.6-.88,5.54-.88,9.81,0,17.76,7.96,17.76,17.77,0,5.27-2.3,10.01-5.94,13.25l51.64,9.94Z"/>
  </g>
</svg>