<?xml version="1.0" encoding="UTF-8"?>
<svg id="Capa_2" data-name="Capa 2" xmlns="http://www.w3.org/2000/svg" viewBox="0 0 798.66 374.01">
  <defs>
    <style>
      .cls-1 {
        letter-spacing: -.06em;
      }

      .cls-2, .cls-3, .cls-4 {
        fill: #fff;
      }

      .cls-5 {
        fill: #56b266;
      }

      .cls-6 {
        letter-spacing: 0em;
      }

      .cls-3 {
        font-size: 280.12px;
      }

      .cls-3, .cls-4 {
        font-family: RingbearerMedium, Ringbearer;
      }

      .cls-4 {
        font-size: 161.54px;
      }

      .cls-7 {
        letter-spacing: 0em;
      }
    </style>
  </defs>
  <g id="LOGO">
    <g>
      <ellipse class="cls-5" cx="495.87" cy="191.53" rx="57.21" ry="52.71"/>
      <ellipse class="cls-2" cx="495.3" cy="192.67" rx="38.27" ry="38.34"/>
      <path d="M495.58,137.07c-.92,1.76-2.24,4.42-3.64,7.75-11.55,27.66-7.98,54.09-6.6,63.46,1.25,8.47,3.91,20.79,10.14,34.73,6.15-13.59,20.63-50.47,7.84-88.68-2.15-6.41-4.82-12.15-7.75-17.26Z"/>
      <path class="cls-5" d="M459.59,247.97c.43-.97,16.21,9.9,38.48,9.28,14.07-.39,25.66-5.22,33.84-9.78-.93,1.14-2.3,2.7-4.14,4.34-10.88,9.68-24.56,10.2-28.81,10.36-22.33.84-39.83-13.17-39.37-14.21Z"/>
      <path class="cls-5" d="M496.1,70.53c-1.82,8.33-3.14,19.26-1.79,31.84.46,4.25,1.16,8.19,2,11.78.52-2.58.96-5.28,1.31-8.1,1.66-13.57.5-25.69-1.52-35.53Z"/>
      <path class="cls-5" d="M523.55,81.71c-3.25,6.45-6.43,15.13-7.17,25.73-.25,3.58-.19,6.96.06,10.08.96-2.01,1.87-4.13,2.7-6.36,3.98-10.78,4.82-20.95,4.41-29.44Z"/>
      <path class="cls-5" d="M549.01,98.23c-3.95,4.07-8.47,9.82-11.89,17.49-1.16,2.59-2.05,5.1-2.74,7.46,1.2-1.28,2.39-2.65,3.56-4.13,5.63-7.12,9-14.46,11.07-20.82Z"/>
      <path class="cls-5" d="M563.99,115.4c-3.2,2.13-6.96,5.31-10.15,9.99-1.08,1.58-1.96,3.15-2.69,4.65.97-.68,1.95-1.42,2.92-2.24,4.69-3.94,7.81-8.4,9.91-12.4Z"/>
      <path class="cls-5" d="M468.62,81.26c3.25,6.45,6.43,15.13,7.17,25.73.25,3.58.19,6.96-.06,10.08-.96-2.01-1.87-4.13-2.7-6.36-3.98-10.78-4.82-20.95-4.41-29.44Z"/>
      <path class="cls-5" d="M443.16,97.77c3.95,4.07,8.47,9.82,11.89,17.49,1.16,2.59,2.05,5.1,2.74,7.46-1.2-1.28-2.39-2.65-3.56-4.13-5.63-7.12-9-14.46-11.07-20.82Z"/>
      <path class="cls-5" d="M428.18,117.96c3.2,2.13,6.96,5.31,10.15,9.99,1.08,1.58,1.96,3.15,2.69,4.65-.97-.68-1.95-1.42-2.92-2.24-4.69-3.94-7.81-8.4-9.91-12.4Z"/>
      <text class="cls-4" transform="translate(175.22 241.08)"><tspan x="0" y="0">r</tspan><tspan class="cls-6" x="89.6" y="0">i</tspan><tspan x="138.74" y="0" xml:space="preserve">m   r</tspan><tspan class="cls-1" x="461.82" y="0">i</tspan><tspan class="cls-7" x="501.81" y="0">o</tspan></text>
      <text class="cls-3" transform="translate(0 243.53)"><tspan x="0" y="0">g</tspan></text>
    </g>
  </g>
</svg>