<?xml version="1.0" encoding="UTF-8"?>
<svg id="Capa_1" xmlns="http://www.w3.org/2000/svg" version="1.1" xmlns:xlink="http://www.w3.org/1999/xlink" viewBox="0 0 1920 1080">
  <!-- Generator: Adobe Illustrator 29.8.2, SVG Export Plug-In . SVG Version: 2.1.1 Build 3)  -->
  <defs>
    <style>
      .st0 {
        fill: #352d2a;
      }

      .st0, .st1, .st2, .st3, .st4, .st5 {
        stroke: #000;
        stroke-miterlimit: 10;
      }

      .st0, .st1, .st3 {
        stroke-width: 4px;
      }

      .st1 {
        fill: #534741;
      }

      .st6 {
        fill: url(#Degradado_sin_nombre_17);
        filter: url(#outer-glow-1);
      }

      .st2 {
        fill: #754c24;
      }

      .st2, .st4 {
        stroke-width: 5px;
      }

      .st3 {
        fill: #868589;
      }

      .st4 {
        fill: #42210b;
      }

      .st5 {
        fill: #a88026;
        stroke-width: 3px;
      }
    </style>
    <linearGradient id="Degradado_sin_nombre_17" data-name="Degradado sin nombre 17" x1="642.77" y1="572.92" x2="1127.69" y2="572.92" gradientUnits="userSpaceOnUse">
      <stop offset="0" stop-color="#67140e"/>
      <stop offset="1" stop-color="#67140e" stop-opacity=".2"/>
    </linearGradient>
    <filter id="outer-glow-1" x="525" y="78" width="720" height="990" filterUnits="userSpaceOnUse">
      <feOffset dx="0" dy="0"/>
      <feGaussianBlur result="blur" stdDeviation="39"/>
      <feFlood flood-color="#67140e" flood-opacity=".87"/>
      <feComposite in2="blur" operator="in"/>
      <feComposite in="SourceGraphic"/>
    </filter>
  </defs>
  <path d="M794.22,852.08c-.71-9.83-1.3-19.66-1.76-29.5-.53-7.38-.97-14.76-.07-22.14.25-2.46.57-4.93,1.12-7.39h.4c2.3,9.69,2.31,19.62,1.76,29.49-.21,9.85-.57,19.69-1.04,29.53,0,0-.4,0-.4,0h0Z"/>
  <path class="st0" d="M1196.85,958.2h-625.41c.65-74.69,1.94-208.91,4.35-380.94,2.48-177.28,4.65-267.2,50.11-329.71,55.37-76.12,153.04-126.33,255.54-125.78,113.06.61,210.88,62.87,263.2,139.91,47.78,70.37,43.49,132.29,45.96,373.79,1.45,141.38,4.29,254.6,6.25,322.72Z"/>
  <path class="st3" d="M1131.51,667.58"/>
  <path class="st6" d="M1127.69,950.53h-484.92c.5-67.44,1.5-188.63,3.37-343.95,1.92-160.07,3.6-241.26,38.86-297.7,42.93-68.73,118.66-114.07,198.14-113.57,87.66.55,163.51,56.76,204.07,126.33,37.05,63.54,33.72,119.45,35.63,337.5,1.12,127.65,3.33,229.88,4.85,291.39Z"/>
  <g>
    <g>
      <g>
        <path class="st2" d="M885.23,195.3v757.79h-241.02V440.41c1.18-15.53,13.4-147.66,123.1-212.5,45.53-26.91,90.6-32.03,117.92-32.6Z"/>
        <path class="st4" d="M669.74,595.64h174.64v282.89h-174.64v-282.89Z"/>
        <path class="st4" d="M847.78,232.07v309.45s-170.55,5.11-170.55,5.11c-.52-16.2-1.12-39.84-1.24-68.43-.18-44.23-.27-66.34,1.24-76.6,10.16-68.85,62.24-114.18,73.53-123.57,37.24-30.99,76.06-41.8,97.02-45.96Z"/>
        <path d="M792.7,534.66c-.26-86.81-2.79-183.1,0-269.52.26-5.99.44-11.98.76-17.97h.4c.29,5.99.44,11.98.67,17.97,1.29,41.84,1.09,83.95.36,125.78-.75,35.53-.48,109.02-2.18,143.74h0Z"/>
        <path d="M751.25,458.74c-.43-22.97-1.11-69.11-1.36-92.07-.65-30.7-.76-61.42,1.45-92.07,0,0,.4,0,.4,0,.54,7.67.94,15.35,1.2,23.02.97,23.01.61,46.03.16,69.05-.27,22.92-.99,69.15-1.44,92.07,0,0-.4,0-.4,0h0Z"/>
        <path d="M717.17,534.09c-.41-27.19-1.03-81.8-1.25-108.98-.62-36.33-.68-72.68,1.55-108.97,0,0,.4,0,.4,0,.53,9.08.92,18.16,1.17,27.25.95,27.24.56,54.49.08,81.73-.29,27.13-1.07,81.84-1.55,108.97,0,0-.4,0-.4,0h0Z"/>
        <path d="M793.41,777.83c-.43-22.97-1.11-69.11-1.36-92.07-.65-30.7-.76-61.42,1.44-92.07,0,0,.4,0,.4,0,.54,7.67.94,15.35,1.2,23.02.97,23.01.61,46.03.16,69.05-.27,22.92-.99,69.15-1.44,92.07,0,0-.4,0-.4,0h0Z"/>
        <path d="M751.3,775.17c-.43-22.97-1.11-69.11-1.36-92.07-.65-30.7-.76-61.42,1.44-92.07,0,0,.4,0,.4,0,.54,7.67.94,15.35,1.2,23.02.97,23.01.61,46.03.16,69.05-.27,22.92-.99,69.15-1.44,92.07,0,0-.4,0-.4,0h0Z"/>
        <path d="M716.65,850.6c-.32-77.88-2.92-164.27-.18-241.79.25-5.37.43-10.75.75-16.12h.4c.3,5.37.45,10.75.68,16.12,1.32,37.54,1.14,75.32.44,112.84-.72,31.85-.41,97.92-2.08,128.95h0Z"/>
      </g>
      <path class="st5" d="M850.72,695.23c4.41-2.2,7.48-7.06,8.17-12,2.1-15.11-17.82-33.54-30.72-45.49-4.03-3.73-8.25-7.31-8.67-12.84-.56-7.5,6.16-14.71,11.31-18.26,3.65-2.52,7.22-3.68,9.62-4.26,6.19,7.94,17.53,8.35,23.43,2.37,6.33-6.41,4.44-18.15-2.37-22.76-6.95-4.7-18.84-1.84-23.69,8.31-4.13,1.28-17.82,6.11-25.25,19.76-1.76,3.24-6.01,11.02-4.22,20.07,1.01,5.1,3.55,8.73,13.28,18.64,15.71,16.01,26.76,24.55,25.02,27.83-1.21,2.29-6.76-.31-10.72,3.57-2.94,2.88-3.89,8.26-1.79,12,3.05,5.41,11.5,5.61,16.6,3.06Z"/>
    </g>
    <path class="st5" d="M644.64,460.22h58.73c2.96-2.37,4.22-6.62,3.18-10.17-1.26-4.33-5.76-6.96-10.03-5.2,4.48-3.62,8.97-7.24,13.45-10.86,5.52,3.55,11.03,7.09,16.55,10.64-3.11.66-6.21,1.31-9.32,1.97.3,1.43.7,4.2,0,7.5-.99,4.66-3.56,7.38-4.52,8.3h8.94c1.69-3.66,3.38-7.33,5.08-10.99,1.72,3.92,3.44,7.85,5.16,11.77,2.57.23,5.13.46,7.7.68-.06-5.75-.12-11.51-.19-17.26,6.4,8.82,12.8,17.64,19.19,26.46-6.96,7.57-13.91,15.14-20.87,22.71.35-4.8.7-9.6,1.05-14.4-2.39-.11-4.78-.22-7.17-.32-2.06,3.74-4.12,7.48-6.18,11.23-1.83-4.06-3.66-8.13-5.49-12.19l-8.49-.48c1.38,2.22,2.98,5.23,4.33,9.03,1.44,4.02,2.15,7.67,2.52,10.49,3.06.12,6.12.25,9.18.37-5.17,4.98-10.34,9.95-15.51,14.93-5.51-5.19-11.03-10.39-16.54-15.58,6.07,2.63,11.91-1.33,12.86-6.34.68-3.59-1.14-7.88-4.52-10.42-19.7.44-39.4.87-59.1,1.31v-23.16Z"/>
    <path class="st5" d="M649.82,802.32h58.73c2.96-2.37,4.22-6.62,3.18-10.17-1.26-4.33-5.76-6.96-10.03-5.2,4.48-3.62,8.97-7.24,13.45-10.86,5.52,3.55,11.03,7.09,16.55,10.64l-9.32,1.97c.3,1.43.7,4.2,0,7.5-.99,4.66-3.56,7.38-4.52,8.3h8.94c1.69-3.66,3.38-7.33,5.08-10.99,1.72,3.92,3.44,7.85,5.16,11.77,2.57.23,5.13.46,7.7.68-.06-5.75-.12-11.51-.19-17.26,6.4,8.82,12.8,17.64,19.19,26.46-6.96,7.57-13.91,15.14-20.87,22.71.35-4.8.7-9.6,1.05-14.4-2.39-.11-4.78-.22-7.17-.32-2.06,3.74-4.12,7.48-6.18,11.23-1.83-4.06-3.66-8.13-5.49-12.19l-8.49-.48c1.38,2.22,2.98,5.23,4.33,9.03,1.44,4.02,2.15,7.67,2.52,10.49,3.06.12,6.12.25,9.18.37-5.17,4.98-10.34,9.95-15.51,14.93-5.51-5.19-11.03-10.39-16.54-15.58,6.07,2.63,11.91-1.33,12.86-6.34.68-3.59-1.14-7.88-4.52-10.42-19.7.44-39.4.87-59.1,1.31v-23.16Z"/>
  </g>
  <g>
    <path class="st1" d="M888.68,118.83c-8.29-.42-19.21-1.05-34.09,0-17.88,1.26-22.15,3.57-24.53,6.9-3.44,4.8-2.39,10.88-.32,22.86,2.12,12.23,3.17,18.35,6.81,22.21,7.91,8.39,19.26,1.83,48.68,1.65,28.36-.17,40.01,5.78,47.66-2.68,3.98-4.4,4.71-10.32,5.79-19.06,1.22-9.88,2.37-19.24-2.38-25.53-4.34-5.74-10.2-4.45-47.62-6.34Z"/>
    <path class="st1" d="M981.37,132.82c-4.52-1.99-10.45-4.69-19.15-6.57-10.45-2.26-13.6-.89-16.02,1.79-3.49,3.87-4.87,9.83-7.6,21.56-2.78,11.98-4.17,17.97-3.38,22.32,1.72,9.46,10.22,5.45,26.81,10.95,15.99,5.3,20.61,13.18,27.64,6.65,3.67-3.4,5.99-8.85,9.44-16.92,3.89-9.11,7.57-17.74,6.95-24.61-.57-6.27-4.29-6.18-24.69-15.18Z"/>
    <path class="st1" d="M1047.46,163.82c-3.68-3.03-8.48-7.08-16.1-11.03-9.16-4.75-12.48-4.22-15.49-2.25-4.34,2.84-7.28,8.2-13.07,18.75-5.92,10.78-8.87,16.17-9.34,20.53-1.01,9.48,8.06,7.74,22.06,17.12,13.5,9.04,15.64,17.72,24.03,13.22,4.37-2.34,8.06-6.99,13.51-13.85,6.16-7.75,11.99-15.1,13.31-21.83,1.2-6.14-2.3-6.98-18.91-20.64Z"/>
    <path class="st1" d="M786.87,134.85c-5.61,1.59-13.01,3.62-22.46,8.17-11.35,5.47-13.37,8.66-13.81,12.36-.63,5.33,2.14,10.8,7.6,21.56,5.58,10.99,8.36,16.49,12.08,19.24,8.08,5.99,13.32-2.89,32.65-10.11,18.63-6.96,28.35-4.16,30.49-13.94,1.12-5.09-.42-10.83-2.7-19.3-2.57-9.57-5.01-18.65-10.3-23.42-4.82-4.36-8.24-1.74-33.55,5.45Z"/>
    <path class="st1" d="M1095.5,199.21c-1.84-2.74-4.2-6.4-8.86-10.14-5.59-4.49-8.45-4.24-11.57-2.76-4.51,2.13-8.81,6.45-17.29,14.95-8.66,8.68-12.99,13.02-14.95,16.64-4.26,7.87,3.63,6.94,11.41,15.57,7.5,8.32,6.05,15.71,14.41,12.42,4.35-1.71,8.99-5.39,15.86-10.82,7.75-6.14,15.1-11.95,18.6-17.51,3.2-5.07.7-5.97-7.61-18.34Z"/>
    <path class="st1" d="M1126.16,230.65c-1.74-2.63-3.97-6.13-8.44-9.66-5.37-4.24-8.17-3.92-11.27-2.41-4.46,2.18-8.78,6.48-17.29,14.95-8.69,8.65-13.03,12.98-15.04,16.54-4.36,7.76,3.39,6.66,10.81,14.88,7.15,7.92,5.55,15.14,13.81,11.74,4.3-1.77,8.94-5.46,15.79-10.91,7.74-6.16,15.07-11.99,18.63-17.48,3.25-5.01.83-5.82-7.01-17.66Z"/>
    <path class="st1" d="M1159.54,278.07c-2.15-4.5-4.91-10.45-10.31-17.62-6.49-8.61-9.78-9.64-13.37-9.19-5.18.64-10.11,4.26-19.82,11.38-9.92,7.28-14.88,10.91-17.11,14.74-4.85,8.32,4.24,10.88,13.3,25.99,8.73,14.57,7.12,23.6,16.73,23.28,5-.17,10.33-2.78,18.2-6.64,8.89-4.36,17.32-8.49,21.31-14.13,3.64-5.14.76-7.52-8.93-27.81Z"/>
    <path class="st1" d="M1187.04,338.66c-.64-4.21-1.41-9.77-4.3-16.89-3.47-8.55-6.25-10.09-9.78-10.45-5.08-.52-10.84,1.5-22.19,5.48-11.59,4.07-17.39,6.1-20.66,8.85-7.13,5.99.65,9.99,4.53,24.52,3.74,14.01-.56,21.25,8.6,22.95,4.77.89,10.59-.21,19.2-1.84,9.73-1.83,18.94-3.57,24.44-7.48,5.02-3.56,3.03-6.15.14-25.15Z"/>
    <path class="st1" d="M1201.24,406.02c-.02-5.54.03-12.84-1.79-22.65-2.19-11.78-4.73-14.43-8.17-15.75-4.96-1.91-10.97-.73-22.8,1.6-12.08,2.37-18.13,3.56-21.78,6.28-7.94,5.92-.81,12.94.92,32.47,1.67,18.83-3.65,27.04,5.18,31.45,4.6,2.3,10.54,2.31,19.31,2.34,9.91.03,19.3.05,25.33-3.6,5.5-3.33,3.9-7.13,3.81-32.14Z"/>
    <path class="st1" d="M1204.72,479.62c.44-5.33,1.09-12.35.07-21.93-1.22-11.51-3.53-14.26-6.85-15.8-4.79-2.23-10.87-1.57-22.86-.28-12.24,1.32-18.36,1.98-22.22,4.31-8.4,5.06-1.87,12.38-1.75,31.31.12,18.24-5.86,25.72,2.58,30.67,4.4,2.57,10.31,3.06,19.05,3.78,9.87.81,19.23,1.58,25.54-1.45,5.75-2.77,4.47-6.55,6.44-30.61Z"/>
    <path class="st1" d="M1202.2,523.4c.38-1.7.95-3.93-.06-6.96-1.21-3.64-3.4-4.5-6.53-4.96-4.51-.66-10.23-.4-21.49.12-11.5.53-17.25.79-20.87,1.57-7.87,1.68-1.69,3.95-1.47,9.96.21,5.79-5.37,8.22,2.6,9.71,4.15.78,9.71.88,17.93,1.03,9.29.17,18.09.33,24-.69,5.39-.93,4.17-2.12,5.88-9.78Z"/>
    <path class="st1" d="M1196.49,558.14c.3-3.33.76-7.71-.31-13.64-1.28-7.13-3.38-8.79-6.37-9.67-4.3-1.28-9.71-.73-20.35.34-10.87,1.1-16.31,1.65-19.71,3.18-7.39,3.34-1.45,7.74-1.02,19.51.42,11.34-4.78,16.13,2.82,19.01,3.96,1.5,9.23,1.67,17.03,1.92,8.81.28,17.15.55,22.71-1.48,5.07-1.85,3.87-4.17,5.21-19.18Z"/>
    <path class="st1" d="M1199.22,645.69c.56-9.05,1.37-20.94.71-37.2-.8-19.54-2.86-24.23-5.89-26.89-4.38-3.84-10.05-2.8-21.21-.75-11.4,2.09-17.1,3.14-20.76,7.04-7.95,8.48-2.1,20.98-2.54,53.1-.43,30.96-6.19,43.57,1.5,52.06,4.01,4.42,9.48,5.32,17.58,6.65,9.14,1.5,17.81,2.92,23.75-2.15,5.42-4.63,4.34-11.05,6.87-51.86Z"/>
    <path class="st1" d="M1197.92,717.14c.4-2.75,1.01-6.37.07-11.32-1.12-5.94-3.25-7.37-6.31-8.19-4.42-1.17-10.03-.86-21.08-.24-11.29.63-16.93.95-20.5,2.13-7.75,2.58-1.73,6.38-1.63,16.16.1,9.42-5.41,13.25,2.37,15.84,4.05,1.35,9.51,1.62,17.57,2.03,9.11.46,17.74.9,23.56-.65,5.31-1.41,4.13-3.36,5.95-15.78Z"/>
    <path class="st1" d="M1197.32,779c.46-6.1,1.13-14.12.39-25.08-.89-13.17-2.85-16.34-5.72-18.14-4.13-2.6-9.43-1.9-19.87-.54-10.66,1.39-15.99,2.09-19.38,4.71-7.38,5.71-1.81,14.14-1.99,35.8-.17,20.87-5.48,29.37,1.79,35.1,3.78,2.99,8.92,3.6,16.51,4.51,8.57,1.03,16.7,2,22.22-1.41,5.04-3.11,3.99-7.45,6.05-34.95Z"/>
    <path class="st1" d="M1196.07,838.3c.25-3.06.64-7.1-.43-12.54-1.28-6.54-3.28-8.05-6.11-8.83-4.08-1.13-9.18-.57-19.22.54-10.26,1.13-15.39,1.69-18.59,3.14-6.95,3.15-1.3,7.14-.78,17.96.5,10.43-4.36,14.89,2.85,17.46,3.75,1.34,8.74,1.44,16.1,1.58,8.32.16,16.21.32,21.44-1.61,4.77-1.76,3.62-3.88,4.74-17.7Z"/>
    <path class="st1" d="M1200.3,880.04c.3-3.03.77-7.01-.44-12.38-1.45-6.45-3.75-7.92-7.01-8.67-4.7-1.08-10.59-.49-22.2.68-11.85,1.19-17.78,1.79-21.48,3.24-8.04,3.16-1.53,7.06-.98,17.74.54,10.3-5.1,14.74,3.22,17.22,4.33,1.29,10.08,1.35,18.59,1.44,9.61.1,18.71.19,24.76-1.75,5.52-1.77,4.19-3.86,5.54-17.52Z"/>
    <path class="st1" d="M1128.81,958.71h85.79c-.03-5.73-.07-15.64,0-28.09.12-23.21.45-27.56-3.06-31.27-5.11-5.4-11.76-2.49-37.28-1.41-28.46,1.2-37.27-1.88-42.89,5.11-2.14,2.65-2.87,5.58-3.06,22.47-.16,13.82.17,25.24.51,33.19Z"/>
    <path class="st1" d="M1128.81,958.71h85.79c-.03-5.73-.07-15.64,0-28.09.12-23.21.45-27.56-3.06-31.27-5.11-5.4-11.76-2.49-37.28-1.41-28.46,1.2-37.27-1.88-42.89,5.11-2.14,2.65-2.87,5.58-3.06,22.47-.16,13.82.17,25.24.51,33.19Z"/>
    <path class="st1" d="M721.83,162.01c-3.54,1.63-8.24,3.72-13.67,8.19-6.52,5.38-7.04,8.39-6.29,11.81,1.09,4.94,4.63,9.9,11.63,19.68,7.14,9.98,10.71,14.98,14.15,17.41,7.48,5.29,8.66-3.06,20.37-10.28,11.28-6.97,19.02-4.66,17.73-13.75-.67-4.73-3.42-9.98-7.48-17.74-4.59-8.76-8.94-17.07-14.08-21.32-4.69-3.88-6.38-1.37-22.35,6.01Z"/>
    <path class="st1" d="M671.14,198.02c-3.86,2.8-8.99,6.43-14.73,12.81-6.9,7.67-7.23,11.02-6.08,14.42,1.66,4.91,6.11,9.11,14.86,17.37,8.94,8.44,13.41,12.66,17.52,14.2,8.92,3.36,9.52-5.85,22.12-17.04,12.14-10.79,21.08-10.67,18.84-19.93-1.17-4.82-4.74-9.56-10.01-16.56-5.96-7.91-11.6-15.41-17.78-18.37-5.64-2.7-7.33.47-24.74,13.11Z"/>
    <path class="st1" d="M614.24,260.37c-4.54,5.93-10.58,13.7-17.24,25.35-8,14.01-8.25,18.48-6.7,22.13,2.23,5.26,7.79,7.89,18.74,13.09,11.19,5.31,16.78,7.96,21.81,7.42,10.93-1.17,11.25-13.29,25.99-35.28,14.2-21.19,25.02-26.52,21.89-36.96-1.63-5.44-6.15-9.31-12.84-15.02-7.55-6.46-14.71-12.58-22.32-12.58-6.94,0-8.84,5.08-29.33,31.85Z"/>
    <path class="st1" d="M565.82,370.88c-1.93,8.92-4.56,20.63-6.08,36.95-1.83,19.61-.08,24.64,3.11,27.82,4.59,4.59,11.37,4.53,24.74,4.42,13.65-.11,20.47-.17,25.3-3.42,10.51-7.07,5.42-20.55,10.47-52.47,4.87-30.77,13.41-42.34,5.59-52.14-4.07-5.1-10.35-6.95-19.65-9.67-10.5-3.08-20.44-6-28.12-1.97-7,3.68-6.65,10.26-15.37,50.48Z"/>
    <path class="st1" d="M563.41,484.74c-.01,6.94-.11,16.08,1.66,28.44,2.13,14.84,4.64,18.27,8.08,20.06,4.96,2.59,10.98,1.36,22.83-1.07,12.11-2.48,18.17-3.72,21.84-6.98,7.99-7.08.89-16.17-.72-40.71-1.55-23.65,3.82-33.72-4.99-39.6-4.59-3.06-10.53-3.33-19.31-3.72-9.92-.44-19.32-.86-25.37,3.48-5.52,3.95-3.95,8.77-4.01,40.09Z"/>
    <path class="st1" d="M571.09,578.24c-.12,7.48-.36,17.32,1.13,30.68,1.79,16.05,4.13,19.81,7.38,21.84,4.68,2.93,10.44,1.77,21.78-.51,11.58-2.33,17.37-3.5,20.92-6.91,7.72-7.41,1.11-17.4-.04-43.88-1.1-25.52,4.18-36.22-4.13-42.8-4.33-3.43-9.98-3.88-18.35-4.54-9.45-.75-18.4-1.46-24.23,3.04-5.32,4.1-3.9,9.34-4.46,43.08Z"/>
    <path class="st1" d="M571.45,700.54c-.26,6.99-.67,16.19.63,28.7,1.56,15.03,3.9,18.57,7.2,20.51,4.76,2.79,10.69,1.78,22.38-.22,11.94-2.04,17.9-3.07,21.61-6.21,8.06-6.84,1.44-16.25.72-41.02-.69-23.88,4.92-33.82-3.5-40.07-4.38-3.26-10.19-3.74-18.77-4.46-9.69-.81-18.87-1.58-24.95,2.56-5.54,3.77-4.17,8.68-5.33,40.23Z"/>
    <path class="st1" d="M572.03,644.4c-.42,1.96-1.05,4.53-.08,8.06,1.16,4.24,3.38,5.27,6.56,5.87,4.59.86,10.43.67,21.94.29,11.75-.39,17.62-.58,21.33-1.4,8.07-1.79,1.8-4.54,1.7-11.5-.1-6.71,5.64-9.41-2.46-11.3-4.22-.98-9.89-1.21-18.28-1.55-9.48-.38-18.46-.74-24.51.32-5.52.97-4.3,2.37-6.2,11.2Z"/>
    <path class="st1" d="M571.38,784.28c-.42,5.33-1.05,12.34,0,21.91,1.26,11.49,3.57,14.23,6.9,15.77,4.8,2.21,10.88,1.54,22.86.21,12.23-1.36,18.35-2.04,22.21-4.38,8.39-5.08,1.83-12.37,1.66-31.29-.17-18.23,5.78-25.72-2.68-30.63-4.4-2.56-10.32-3.03-19.06-3.72-9.88-.78-19.24-1.52-25.53,1.53-5.74,2.79-4.45,6.56-6.34,30.6Z"/>
    <path class="st1" d="M571.01,848.25c-.39,4.15-.98,9.62.11,17.05,1.32,8.94,3.65,11.06,6.98,12.23,4.81,1.69,10.89,1.12,22.86,0,12.23-1.14,18.34-1.71,22.19-3.56,8.36-4.01,1.77-9.65,1.49-24.37-.27-14.19,5.64-20.06-2.84-23.83-4.42-1.96-10.34-2.29-19.08-2.76-9.88-.54-19.24-1.05-25.52,1.37-5.73,2.21-4.42,5.13-6.18,23.87Z"/>
    <path class="st1" d="M569.5,890.44c-.33,1.72-.83,3.99.38,6.98,1.45,3.59,3.81,4.34,7.16,4.65,4.83.44,10.89-.11,22.83-1.19,12.19-1.1,18.29-1.65,22.1-2.61,8.29-2.08,1.61-4.04,1.11-10.06-.49-5.8,5.32-8.51-3.21-9.62-4.44-.57-10.36-.4-19.1-.14-9.88.29-19.23.57-25.47,1.88-5.68,1.2-4.33,2.33-5.8,10.1Z"/>
    <path class="st1" d="M551.31,960.72h85.79c-.03-5.73-.07-15.64,0-28.09.12-23.21.45-27.56-3.06-31.27-5.11-5.4-11.76-2.49-37.28-1.41-28.46,1.2-37.27-1.88-42.89,5.11-2.14,2.65-2.87,5.58-3.06,22.47-.16,13.82.17,25.24.51,33.19Z"/>
  </g>
  <g>
    <g>
      <path class="st2" d="M1369.28,203.14v757.79h-241.02V448.25c1.18-15.53,13.4-147.66,123.1-212.5,45.53-26.91,90.6-32.03,117.92-32.6Z"/>
      <path class="st4" d="M1153.79,603.48h174.64v282.89h-174.64v-282.89Z"/>
      <path class="st4" d="M1331.82,239.91v309.45s-170.55,5.11-170.55,5.11c-.52-16.2-1.12-39.84-1.24-68.43-.18-44.23-.27-66.34,1.24-76.6,10.16-68.85,62.24-114.18,73.53-123.57,37.24-30.99,76.06-41.8,97.02-45.96Z"/>
      <path d="M1276.74,542.5c-.26-86.81-2.79-183.1,0-269.52.26-5.99.44-11.98.76-17.97h.4c.29,5.99.44,11.98.67,17.97,1.29,41.84,1.09,83.95.36,125.78-.75,35.53-.48,109.02-2.18,143.74h0Z"/>
      <path d="M1235.29,466.58c-.43-22.97-1.11-69.11-1.36-92.07-.65-30.7-.76-61.42,1.45-92.07,0,0,.4,0,.4,0,.54,7.67.94,15.35,1.2,23.02.97,23.01.61,46.03.16,69.05-.27,22.92-.99,69.15-1.44,92.07,0,0-.4,0-.4,0h0Z"/>
      <path d="M1201.21,541.93c-.41-27.19-1.03-81.8-1.25-108.98-.62-36.33-.68-72.68,1.55-108.97,0,0,.4,0,.4,0,.53,9.08.92,18.16,1.17,27.25.95,27.24.56,54.49.08,81.73-.29,27.13-1.07,81.84-1.55,108.97,0,0-.4,0-.4,0h0Z"/>
      <path d="M1277.45,785.67c-.43-22.97-1.11-69.11-1.36-92.07-.65-30.7-.76-61.42,1.44-92.07,0,0,.4,0,.4,0,.54,7.67.94,15.35,1.2,23.02.97,23.01.61,46.03.16,69.05-.27,22.92-.99,69.15-1.44,92.07,0,0-.4,0-.4,0h0Z"/>
      <path d="M1235.34,783.01c-.43-22.97-1.11-69.11-1.36-92.07-.65-30.7-.76-61.42,1.44-92.07,0,0,.4,0,.4,0,.54,7.67.94,15.35,1.2,23.02.97,23.01.61,46.03.16,69.05-.27,22.92-.99,69.15-1.44,92.07,0,0-.4,0-.4,0h0Z"/>
      <path d="M1200.69,858.44c-.32-77.88-2.92-164.27-.18-241.79.25-5.37.43-10.75.75-16.12,0,0,.4,0,.4,0,.3,5.37.45,10.75.68,16.12,1.32,37.54,1.14,75.32.44,112.84-.72,31.85-.41,97.92-2.08,128.95h0Z"/>
    </g>
    <path class="st5" d="M1128.68,468.06h58.73c2.96-2.37,4.22-6.62,3.18-10.17-1.26-4.33-5.76-6.96-10.03-5.2,4.48-3.62,8.97-7.24,13.45-10.86,5.52,3.55,11.03,7.09,16.55,10.64-3.11.66-6.21,1.31-9.32,1.97.3,1.43.7,4.2,0,7.5-.99,4.66-3.56,7.38-4.52,8.3h8.94c1.69-3.66,3.38-7.33,5.08-10.99,1.72,3.92,3.44,7.85,5.16,11.77,2.57.23,5.13.46,7.7.68-.06-5.75-.12-11.51-.19-17.26,6.4,8.82,12.8,17.64,19.19,26.46-6.96,7.57-13.91,15.14-20.87,22.71.35-4.8.7-9.6,1.05-14.4-2.39-.11-4.78-.22-7.17-.32-2.06,3.74-4.12,7.48-6.18,11.23-1.83-4.06-3.66-8.13-5.49-12.19l-8.49-.48c1.38,2.22,2.98,5.23,4.33,9.03,1.44,4.02,2.15,7.67,2.52,10.49,3.06.12,6.12.25,9.18.37-5.17,4.98-10.34,9.95-15.51,14.93-5.51-5.19-11.03-10.39-16.54-15.58,6.07,2.63,11.91-1.33,12.86-6.34.68-3.59-1.14-7.88-4.52-10.42-19.7.44-39.4.87-59.1,1.31v-23.16Z"/>
    <path class="st5" d="M1133.86,810.16h58.73c2.96-2.37,4.22-6.62,3.18-10.17-1.26-4.33-5.76-6.96-10.03-5.2,4.48-3.62,8.97-7.24,13.45-10.86,5.52,3.55,11.03,7.09,16.55,10.64-3.11.66-6.21,1.31-9.32,1.97.3,1.43.7,4.2,0,7.5-.99,4.66-3.56,7.38-4.52,8.3h8.94c1.69-3.66,3.38-7.33,5.08-10.99,1.72,3.92,3.44,7.85,5.16,11.77,2.57.23,5.13.46,7.7.68-.06-5.75-.12-11.51-.19-17.26,6.4,8.82,12.8,17.64,19.19,26.46-6.96,7.57-13.91,15.14-20.87,22.71.35-4.8.7-9.6,1.05-14.4-2.39-.11-4.78-.22-7.17-.32-2.06,3.74-4.12,7.48-6.18,11.23-1.83-4.06-3.66-8.13-5.49-12.19l-8.49-.48c1.38,2.22,2.98,5.23,4.33,9.03,1.44,4.02,2.15,7.67,2.52,10.49,3.06.12,6.12.25,9.18.37-5.17,4.98-10.34,9.95-15.51,14.93-5.51-5.19-11.03-10.39-16.54-15.58,6.07,2.63,11.91-1.33,12.86-6.34.68-3.59-1.14-7.88-4.52-10.42-19.7.44-39.4.87-59.1,1.31v-23.16Z"/>
  </g>
</svg>