<?xml version="1.0" encoding="utf-8"?>
<!-- Generator: Adobe Illustrator 26.5.0, SVG Export Plug-In . SVG Version: 6.00 Build 0)  -->
<svg version="1.1" id="Capa_1" xmlns="http://www.w3.org/2000/svg" xmlns:xlink="http://www.w3.org/1999/xlink" x="0px" y="0px"
	 viewBox="0 0 116.8 86.3" style="enable-background:new 0 0 116.8 86.3;" xml:space="preserve">
<style type="text/css">
	.st0{fill:#B7B7B7;stroke:#939393;stroke-width:0.8188;stroke-miterlimit:10;}
	.st1{fill:#D8DBD2;stroke:#939393;stroke-width:0.8188;stroke-miterlimit:10;}
	.st2{fill:none;stroke:#383838;stroke-width:0.72;stroke-miterlimit:10;}
	.st3{fill:none;stroke:#939393;stroke-width:0.8188;stroke-miterlimit:10;}
	.st4{fill:#F2F2F2;}
	.st5{fill:#FFFFFF;stroke:#B8D1D8;stroke-miterlimit:10;}
	.st6{fill:#444444;stroke:#B8D1D8;stroke-miterlimit:10;}
</style>
<g id="foca">
	<path class="st0" d="M79.2,71.4c0.3,1.9,0.5,3.5,0.5,4.3c0,2.8-2.3,5.1-5.1,5.1s-5.1-2.3-5.1-5.1c0-0.7,0.2-2.1,0.4-3.8"/>
	<ellipse transform="matrix(0.9555 -0.2952 0.2952 0.9555 -18.1685 12.5917)" class="st0" cx="32.6" cy="66.5" rx="3" ry="5.5"/>
	<path class="st1" d="M84.1,59.8c0,10.5-8.5,19.1-19.1,19.1c-7.5,0-21.7,0.5-29.4-2.9c-0.8-0.4-1.7-0.7-2.6-0.9
		c-1.2-0.3-2.6-1.1-3.8-2.4c-2-2.3-2.7-5-1.4-6.1c0.7-0.7,1.9-0.6,3.2,0c1.8-5.4,8-11.9,15-17c0.5-10.8,9.9-19.2,21-18.1
		c9.8,1,17.3,9.6,17.1,19.4c0,0.6,0,1.2-0.1,1.8c-0.2,1.8-0.1,3.5,0,5.3C84.1,58.5,84.1,59.1,84.1,59.8z"/>
	<g>
		<circle cx="56.3" cy="47.1" r="1.5"/>
	</g>
	<g>
		<circle cx="73.1" cy="47.4" r="1.5"/>
	</g>
	<g>
		<ellipse cx="65.3" cy="51" rx="2.5" ry="1.6"/>
	</g>
	<path class="st2" d="M65.3,52.6c0,1.8-1.7,3.2-3.8,3.2c-2.1,0-3.8-1.4-3.8-3.2"/>
	<path class="st2" d="M72.5,52.6c0,1.8-1.7,3.2-3.8,3.2s-3.8-1.4-3.8-3.2"/>
	<path class="st1" d="M59.9,72c0.3,1.9,0.5,3.5,0.5,4.3c0,2.8-2.3,5.1-5.1,5.1s-5.1-2.3-5.1-5.1c0-0.7,0.2-2.1,0.4-3.8"/>
	<line class="st3" x1="54.2" y1="52.2" x2="49.7" y2="53.1"/>
	<line class="st3" x1="54.2" y1="54.4" x2="50.6" y2="57.2"/>
	<line class="st3" x1="76.1" y1="52.2" x2="80.5" y2="53.1"/>
	<line class="st3" x1="76" y1="54.4" x2="79.6" y2="57.2"/>
	<path class="st4" d="M40.5,62.1c2.6-0.4,2.8-5.3,0.6-5.5c-2.2-0.3-5.1,3.1-3.7,4.6C38.9,62.7,39.4,62.3,40.5,62.1z"/>
	<path class="st4" d="M34.7,66.5c1.5-1.6,2.7-2.8,1.3-2.7s-3.1,2.2-2.6,2.7S33.8,67.4,34.7,66.5z"/>
	<path class="st4" d="M43.3,53.1c-1.9,0.5-0.4,1.8,0.5,1.3C44.7,53.9,44.9,52.7,43.3,53.1z"/>
</g>
<g id="ig7">
	<rect x="4" y="59.7" class="st5" width="63.8" height="23.5"/>
</g>
<g id="ig6">
	<path class="st5" d="M112.6,58v1.7h-78V30.9h70.8C109.9,38.8,112.6,48.1,112.6,58z"/>
</g>
<g id="ig5">
	<path class="st5" d="M67.8,4.5v26.3H11.3c5.4-9.4,13.5-16.9,23.3-21.7c7.2-3.5,15.2-5.5,23.7-5.5C61.5,3.7,64.7,4,67.8,4.5z"/>
</g>
<g id="ig4">
	<path class="st5" d="M11.3,30.9h23.3v28.8H4V58C4,48.1,6.7,38.8,11.3,30.9z"/>
</g>
<g id="ig3">
	<path class="st5" d="M105.3,30.9H67.8V4.5C79,6.5,89,11.9,96.7,19.6C100,23,102.9,26.7,105.3,30.9z"/>
</g>
<g id="ig2">
	<rect x="67.8" y="59.7" class="st5" width="44.9" height="23.5"/>
</g>
<g id="ig1">
	<path class="st5" d="M100.4,60.1v23.1H67.8V60.1c0-9,7.3-16.3,16.3-16.3c4.5,0,8.6,1.8,11.6,4.8C98.6,51.5,100.4,55.6,100.4,60.1z"
		/>
	<path class="st6" d="M95,60.9v22.3H73.2V60.9c0-6,4.9-10.9,10.9-10.9c3,0,5.7,1.2,7.7,3.2C93.8,55.2,95,57.9,95,60.9z"/>
</g>
</svg>
